ISO-10303-21;
HEADER;
/* Generated by software containing ST-Developer
 * from STEP Tools, Inc. (www.steptools.com) 
 */
/* OPTION: using custom renumber hook */

FILE_DESCRIPTION(
/* description */ ('STEP AP242 Edition 2',
'CAx-IF Rec.Pracs.---Representation and Presentation of Product Manufa
cturing Information (PMI)---4.0---2014-10-13',
'CAx-IF Rec.Pracs.---3D Tessellated Geometry---0.4---2014-09-14','2;1',
'CAx-IF Rec.Pracs.---User Defined Attributes---1.5---2016-08-15'),
/* implementation_level */ '2;1');

FILE_NAME(
/* name */ '697f858f4ebd30078a587aef',
/* time_stamp */ '2026-02-01T16:55:43Z',
/* author */ (''),
/* organization */ (''),
/* preprocessor_version */ 'ST-DEVELOPER v20',
/* originating_system */ 'ONSHAPE BY PTC INC, 1.210',
/* authorisation */ '  ');

FILE_SCHEMA (('AP242_MANAGED_MODEL_BASED_3D_ENGINEERING_MIM_LF { 1 0 10303 442 3 1 4 }'));
ENDSEC;

DATA;
#10=SHAPE_REPRESENTATION_RELATIONSHIP('','',#289,#11);
#11=ADVANCED_BREP_SHAPE_REPRESENTATION('',(#287),#459);
#12=CYLINDRICAL_SURFACE('',#306,0.116282997220968);
#13=CYLINDRICAL_SURFACE('',#309,0.124514004308817);
#14=CIRCLE('',#302,0.116282997220968);
#15=CIRCLE('',#303,0.124514004308817);
#16=CIRCLE('',#305,0.116282997220968);
#17=CIRCLE('',#308,0.124514004308817);
#18=ORIENTED_EDGE('',*,*,#86,.T.);
#19=ORIENTED_EDGE('',*,*,#87,.T.);
#20=ORIENTED_EDGE('',*,*,#88,.F.);
#21=ORIENTED_EDGE('',*,*,#89,.F.);
#22=ORIENTED_EDGE('',*,*,#90,.F.);
#23=ORIENTED_EDGE('',*,*,#91,.T.);
#24=ORIENTED_EDGE('',*,*,#92,.T.);
#25=ORIENTED_EDGE('',*,*,#93,.T.);
#26=ORIENTED_EDGE('',*,*,#94,.F.);
#27=ORIENTED_EDGE('',*,*,#95,.F.);
#28=ORIENTED_EDGE('',*,*,#96,.T.);
#29=ORIENTED_EDGE('',*,*,#97,.T.);
#30=ORIENTED_EDGE('',*,*,#92,.F.);
#31=ORIENTED_EDGE('',*,*,#98,.T.);
#32=ORIENTED_EDGE('',*,*,#95,.T.);
#33=ORIENTED_EDGE('',*,*,#99,.T.);
#34=ORIENTED_EDGE('',*,*,#100,.F.);
#35=ORIENTED_EDGE('',*,*,#101,.F.);
#36=ORIENTED_EDGE('',*,*,#100,.T.);
#37=ORIENTED_EDGE('',*,*,#102,.T.);
#38=ORIENTED_EDGE('',*,*,#103,.F.);
#39=ORIENTED_EDGE('',*,*,#90,.T.);
#40=ORIENTED_EDGE('',*,*,#104,.F.);
#41=ORIENTED_EDGE('',*,*,#105,.F.);
#42=ORIENTED_EDGE('',*,*,#86,.F.);
#43=ORIENTED_EDGE('',*,*,#106,.F.);
#44=ORIENTED_EDGE('',*,*,#107,.T.);
#45=ORIENTED_EDGE('',*,*,#108,.T.);
#46=ORIENTED_EDGE('',*,*,#89,.T.);
#47=ORIENTED_EDGE('',*,*,#109,.F.);
#48=ORIENTED_EDGE('',*,*,#110,.F.);
#49=ORIENTED_EDGE('',*,*,#106,.T.);
#50=ORIENTED_EDGE('',*,*,#88,.T.);
#51=ORIENTED_EDGE('',*,*,#111,.F.);
#52=ORIENTED_EDGE('',*,*,#112,.F.);
#53=ORIENTED_EDGE('',*,*,#109,.T.);
#54=ORIENTED_EDGE('',*,*,#87,.F.);
#55=ORIENTED_EDGE('',*,*,#108,.F.);
#56=ORIENTED_EDGE('',*,*,#113,.T.);
#57=ORIENTED_EDGE('',*,*,#111,.T.);
#58=ORIENTED_EDGE('',*,*,#104,.T.);
#59=ORIENTED_EDGE('',*,*,#93,.F.);
#60=ORIENTED_EDGE('',*,*,#97,.F.);
#61=ORIENTED_EDGE('',*,*,#114,.T.);
#62=ORIENTED_EDGE('',*,*,#107,.F.);
#63=ORIENTED_EDGE('',*,*,#110,.T.);
#64=ORIENTED_EDGE('',*,*,#112,.T.);
#65=ORIENTED_EDGE('',*,*,#113,.F.);
#66=ORIENTED_EDGE('',*,*,#96,.F.);
#67=ORIENTED_EDGE('',*,*,#101,.T.);
#68=ORIENTED_EDGE('',*,*,#105,.T.);
#69=ORIENTED_EDGE('',*,*,#114,.F.);
#70=ORIENTED_EDGE('',*,*,#115,.F.);
#71=ORIENTED_EDGE('',*,*,#102,.F.);
#72=ORIENTED_EDGE('',*,*,#99,.F.);
#73=ORIENTED_EDGE('',*,*,#94,.T.);
#74=ORIENTED_EDGE('',*,*,#116,.F.);
#75=ORIENTED_EDGE('',*,*,#117,.F.);
#76=ORIENTED_EDGE('',*,*,#118,.T.);
#77=ORIENTED_EDGE('',*,*,#116,.T.);
#78=ORIENTED_EDGE('',*,*,#118,.F.);
#79=ORIENTED_EDGE('',*,*,#119,.T.);
#80=ORIENTED_EDGE('',*,*,#117,.T.);
#81=ORIENTED_EDGE('',*,*,#119,.F.);
#82=ORIENTED_EDGE('',*,*,#103,.T.);
#83=ORIENTED_EDGE('',*,*,#115,.T.);
#84=ORIENTED_EDGE('',*,*,#98,.F.);
#85=ORIENTED_EDGE('',*,*,#91,.F.);
#86=EDGE_CURVE('',#120,#121,#144,.T.);
#87=EDGE_CURVE('',#121,#122,#145,.T.);
#88=EDGE_CURVE('',#123,#122,#146,.T.);
#89=EDGE_CURVE('',#120,#123,#147,.T.);
#90=EDGE_CURVE('',#124,#125,#148,.T.);
#91=EDGE_CURVE('',#124,#126,#149,.T.);
#92=EDGE_CURVE('',#126,#127,#150,.T.);
#93=EDGE_CURVE('',#127,#125,#151,.T.);
#94=EDGE_CURVE('',#128,#129,#152,.T.);
#95=EDGE_CURVE('',#130,#128,#153,.T.);
#96=EDGE_CURVE('',#130,#131,#154,.T.);
#97=EDGE_CURVE('',#131,#127,#155,.T.);
#98=EDGE_CURVE('',#126,#129,#156,.T.);
#99=EDGE_CURVE('',#128,#132,#157,.T.);
#100=EDGE_CURVE('',#133,#132,#158,.T.);
#101=EDGE_CURVE('',#130,#133,#159,.T.);
#102=EDGE_CURVE('',#132,#134,#160,.T.);
#103=EDGE_CURVE('',#124,#134,#161,.T.);
#104=EDGE_CURVE('',#135,#125,#162,.T.);
#105=EDGE_CURVE('',#133,#135,#163,.T.);
#106=EDGE_CURVE('',#136,#120,#164,.T.);
#107=EDGE_CURVE('',#136,#137,#165,.T.);
#108=EDGE_CURVE('',#137,#121,#166,.T.);
#109=EDGE_CURVE('',#138,#123,#167,.T.);
#110=EDGE_CURVE('',#136,#138,#168,.T.);
#111=EDGE_CURVE('',#139,#122,#169,.T.);
#112=EDGE_CURVE('',#138,#139,#170,.T.);
#113=EDGE_CURVE('',#137,#139,#171,.T.);
#114=EDGE_CURVE('',#131,#135,#172,.T.);
#115=EDGE_CURVE('',#134,#129,#173,.T.);
#116=EDGE_CURVE('',#140,#140,#14,.T.);
#117=EDGE_CURVE('',#141,#141,#15,.T.);
#118=EDGE_CURVE('',#142,#142,#16,.T.);
#119=EDGE_CURVE('',#143,#143,#17,.T.);
#120=VERTEX_POINT('',#386);
#121=VERTEX_POINT('',#387);
#122=VERTEX_POINT('',#389);
#123=VERTEX_POINT('',#391);
#124=VERTEX_POINT('',#394);
#125=VERTEX_POINT('',#395);
#126=VERTEX_POINT('',#397);
#127=VERTEX_POINT('',#399);
#128=VERTEX_POINT('',#403);
#129=VERTEX_POINT('',#404);
#130=VERTEX_POINT('',#406);
#131=VERTEX_POINT('',#408);
#132=VERTEX_POINT('',#413);
#133=VERTEX_POINT('',#415);
#134=VERTEX_POINT('',#419);
#135=VERTEX_POINT('',#422);
#136=VERTEX_POINT('',#426);
#137=VERTEX_POINT('',#428);
#138=VERTEX_POINT('',#432);
#139=VERTEX_POINT('',#436);
#140=VERTEX_POINT('',#446);
#141=VERTEX_POINT('',#448);
#142=VERTEX_POINT('',#451);
#143=VERTEX_POINT('',#455);
#144=LINE('',#385,#174);
#145=LINE('',#388,#175);
#146=LINE('',#390,#176);
#147=LINE('',#392,#177);
#148=LINE('',#393,#178);
#149=LINE('',#396,#179);
#150=LINE('',#398,#180);
#151=LINE('',#400,#181);
#152=LINE('',#402,#182);
#153=LINE('',#405,#183);
#154=LINE('',#407,#184);
#155=LINE('',#409,#185);
#156=LINE('',#410,#186);
#157=LINE('',#412,#187);
#158=LINE('',#414,#188);
#159=LINE('',#416,#189);
#160=LINE('',#418,#190);
#161=LINE('',#420,#191);
#162=LINE('',#421,#192);
#163=LINE('',#423,#193);
#164=LINE('',#425,#194);
#165=LINE('',#427,#195);
#166=LINE('',#429,#196);
#167=LINE('',#431,#197);
#168=LINE('',#433,#198);
#169=LINE('',#435,#199);
#170=LINE('',#437,#200);
#171=LINE('',#439,#201);
#172=LINE('',#441,#202);
#173=LINE('',#444,#203);
#174=VECTOR('',#315,100.);
#175=VECTOR('',#316,100.);
#176=VECTOR('',#317,100.);
#177=VECTOR('',#318,100.);
#178=VECTOR('',#319,100.);
#179=VECTOR('',#320,100.);
#180=VECTOR('',#321,100.);
#181=VECTOR('',#322,100.);
#182=VECTOR('',#325,100.);
#183=VECTOR('',#326,100.);
#184=VECTOR('',#327,100.);
#185=VECTOR('',#328,100.);
#186=VECTOR('',#329,100.);
#187=VECTOR('',#332,100.);
#188=VECTOR('',#333,100.);
#189=VECTOR('',#334,100.);
#190=VECTOR('',#337,100.);
#191=VECTOR('',#338,100.);
#192=VECTOR('',#339,100.);
#193=VECTOR('',#340,100.);
#194=VECTOR('',#343,100.);
#195=VECTOR('',#344,100.);
#196=VECTOR('',#345,100.);
#197=VECTOR('',#348,100.);
#198=VECTOR('',#349,100.);
#199=VECTOR('',#352,100.);
#200=VECTOR('',#353,100.);
#201=VECTOR('',#356,100.);
#202=VECTOR('',#359,100.);
#203=VECTOR('',#364,100.);
#204=EDGE_LOOP('',(#18,#19,#20,#21));
#205=EDGE_LOOP('',(#22,#23,#24,#25));
#206=EDGE_LOOP('',(#26,#27,#28,#29,#30,#31));
#207=EDGE_LOOP('',(#32,#33,#34,#35));
#208=EDGE_LOOP('',(#36,#37,#38,#39,#40,#41));
#209=EDGE_LOOP('',(#42,#43,#44,#45));
#210=EDGE_LOOP('',(#46,#47,#48,#49));
#211=EDGE_LOOP('',(#50,#51,#52,#53));
#212=EDGE_LOOP('',(#54,#55,#56,#57));
#213=EDGE_LOOP('',(#58,#59,#60,#61));
#214=EDGE_LOOP('',(#62,#63,#64,#65));
#215=EDGE_LOOP('',(#66,#67,#68,#69));
#216=EDGE_LOOP('',(#70,#71,#72,#73));
#217=EDGE_LOOP('',(#74));
#218=EDGE_LOOP('',(#75));
#219=EDGE_LOOP('',(#76));
#220=EDGE_LOOP('',(#77));
#221=EDGE_LOOP('',(#78));
#222=EDGE_LOOP('',(#79));
#223=EDGE_LOOP('',(#80));
#224=EDGE_LOOP('',(#81));
#225=EDGE_LOOP('',(#82,#83,#84,#85));
#226=FACE_BOUND('',#204,.T.);
#227=FACE_BOUND('',#205,.T.);
#228=FACE_BOUND('',#206,.T.);
#229=FACE_BOUND('',#207,.T.);
#230=FACE_BOUND('',#208,.T.);
#231=FACE_BOUND('',#209,.T.);
#232=FACE_BOUND('',#210,.T.);
#233=FACE_BOUND('',#211,.T.);
#234=FACE_BOUND('',#212,.T.);
#235=FACE_BOUND('',#213,.T.);
#236=FACE_BOUND('',#214,.T.);
#237=FACE_BOUND('',#215,.T.);
#238=FACE_BOUND('',#216,.T.);
#239=FACE_BOUND('',#217,.T.);
#240=FACE_BOUND('',#218,.T.);
#241=FACE_BOUND('',#219,.T.);
#242=FACE_BOUND('',#220,.T.);
#243=FACE_BOUND('',#221,.T.);
#244=FACE_BOUND('',#222,.T.);
#245=FACE_BOUND('',#223,.T.);
#246=FACE_BOUND('',#224,.T.);
#247=FACE_BOUND('',#225,.T.);
#248=PLANE('',#291);
#249=PLANE('',#292);
#250=PLANE('',#293);
#251=PLANE('',#294);
#252=PLANE('',#295);
#253=PLANE('',#296);
#254=PLANE('',#297);
#255=PLANE('',#298);
#256=PLANE('',#299);
#257=PLANE('',#300);
#258=PLANE('',#301);
#259=PLANE('',#304);
#260=PLANE('',#307);
#261=PLANE('',#310);
#262=ADVANCED_FACE('',(#226,#227),#248,.F.);
#263=ADVANCED_FACE('',(#228),#249,.T.);
#264=ADVANCED_FACE('',(#229),#250,.F.);
#265=ADVANCED_FACE('',(#230),#251,.F.);
#266=ADVANCED_FACE('',(#231),#252,.T.);
#267=ADVANCED_FACE('',(#232),#253,.F.);
#268=ADVANCED_FACE('',(#233),#254,.F.);
#269=ADVANCED_FACE('',(#234),#255,.T.);
#270=ADVANCED_FACE('',(#235),#256,.T.);
#271=ADVANCED_FACE('',(#236,#237),#257,.T.);
#272=ADVANCED_FACE('',(#238,#239,#240),#258,.T.);
#273=ADVANCED_FACE('',(#241),#259,.T.);
#274=ADVANCED_FACE('',(#242,#243),#12,.T.);
#275=ADVANCED_FACE('',(#244),#260,.T.);
#276=ADVANCED_FACE('',(#245,#246),#13,.T.);
#277=ADVANCED_FACE('',(#247),#261,.F.);
#278=CLOSED_SHELL('',(#262,#263,#264,#265,#266,#267,#268,#269,#270,#271,
#272,#273,#274,#275,#276,#277));
#279=STYLED_ITEM('',(#280),#287);
#280=PRESENTATION_STYLE_ASSIGNMENT((#281));
#281=SURFACE_STYLE_USAGE(.BOTH.,#282);
#282=SURFACE_SIDE_STYLE('',(#283));
#283=SURFACE_STYLE_FILL_AREA(#284);
#284=FILL_AREA_STYLE('',(#285));
#285=FILL_AREA_STYLE_COLOUR('',#286);
#286=COLOUR_RGB('',0.615686274509804,0.811764705882353,0.929411764705882);
#287=MANIFOLD_SOLID_BREP('Part 1',#278);
#288=SHAPE_DEFINITION_REPRESENTATION(#464,#289);
#289=SHAPE_REPRESENTATION('Part 1',(#290),#459);
#290=AXIS2_PLACEMENT_3D('',#383,#311,#312);
#291=AXIS2_PLACEMENT_3D('',#384,#313,#314);
#292=AXIS2_PLACEMENT_3D('',#401,#323,#324);
#293=AXIS2_PLACEMENT_3D('',#411,#330,#331);
#294=AXIS2_PLACEMENT_3D('',#417,#335,#336);
#295=AXIS2_PLACEMENT_3D('',#424,#341,#342);
#296=AXIS2_PLACEMENT_3D('',#430,#346,#347);
#297=AXIS2_PLACEMENT_3D('',#434,#350,#351);
#298=AXIS2_PLACEMENT_3D('',#438,#354,#355);
#299=AXIS2_PLACEMENT_3D('',#440,#357,#358);
#300=AXIS2_PLACEMENT_3D('',#442,#360,#361);
#301=AXIS2_PLACEMENT_3D('',#443,#362,#363);
#302=AXIS2_PLACEMENT_3D('',#445,#365,#366);
#303=AXIS2_PLACEMENT_3D('',#447,#367,#368);
#304=AXIS2_PLACEMENT_3D('',#449,#369,#370);
#305=AXIS2_PLACEMENT_3D('',#450,#371,#372);
#306=AXIS2_PLACEMENT_3D('',#452,#373,#374);
#307=AXIS2_PLACEMENT_3D('',#453,#375,#376);
#308=AXIS2_PLACEMENT_3D('',#454,#377,#378);
#309=AXIS2_PLACEMENT_3D('',#456,#379,#380);
#310=AXIS2_PLACEMENT_3D('',#457,#381,#382);
#311=DIRECTION('',(0.,0.,1.));
#312=DIRECTION('',(1.,0.,0.));
#313=DIRECTION('',(0.,1.,0.));
#314=DIRECTION('',(1.,0.,0.));
#315=DIRECTION('',(0.,0.,-1.));
#316=DIRECTION('',(1.,0.,0.));
#317=DIRECTION('',(0.,0.,-1.));
#318=DIRECTION('',(1.,0.,0.));
#319=DIRECTION('',(1.,0.,0.));
#320=DIRECTION('',(0.,0.,1.));
#321=DIRECTION('',(1.,0.,0.));
#322=DIRECTION('',(0.,0.,-1.));
#323=DIRECTION('',(0.,0.,-1.));
#324=DIRECTION('',(0.,1.,0.));
#325=DIRECTION('',(1.,0.,0.));
#326=DIRECTION('',(0.,-1.,0.));
#327=DIRECTION('',(1.,0.,0.));
#328=DIRECTION('',(0.,-1.,0.));
#329=DIRECTION('',(0.,1.,0.));
#330=DIRECTION('',(-1.,0.,0.));
#331=DIRECTION('',(0.,1.,0.));
#332=DIRECTION('',(0.,0.,-1.));
#333=DIRECTION('',(0.,-1.,0.));
#334=DIRECTION('',(0.,0.,-1.));
#335=DIRECTION('',(0.,0.,-1.));
#336=DIRECTION('',(0.,1.,0.));
#337=DIRECTION('',(1.,0.,0.));
#338=DIRECTION('',(0.,1.,0.));
#339=DIRECTION('',(0.,-1.,0.));
#340=DIRECTION('',(1.,0.,0.));
#341=DIRECTION('',(-1.,0.,0.));
#342=DIRECTION('',(0.,1.,0.));
#343=DIRECTION('',(0.,-1.,0.));
#344=DIRECTION('',(0.,0.,-1.));
#345=DIRECTION('',(0.,-1.,0.));
#346=DIRECTION('',(0.,0.,-1.));
#347=DIRECTION('',(0.,1.,0.));
#348=DIRECTION('',(0.,-1.,0.));
#349=DIRECTION('',(1.,0.,0.));
#350=DIRECTION('',(-1.,0.,0.));
#351=DIRECTION('',(0.,1.,0.));
#352=DIRECTION('',(0.,-1.,0.));
#353=DIRECTION('',(0.,0.,-1.));
#354=DIRECTION('',(0.,0.,-1.));
#355=DIRECTION('',(0.,1.,0.));
#356=DIRECTION('',(1.,0.,0.));
#357=DIRECTION('',(-1.,0.,0.));
#358=DIRECTION('',(0.,1.,0.));
#359=DIRECTION('',(0.,0.,-1.));
#360=DIRECTION('',(0.,1.,0.));
#361=DIRECTION('',(1.,0.,0.));
#362=DIRECTION('',(0.,1.,0.));
#363=DIRECTION('',(1.,0.,0.));
#364=DIRECTION('',(0.,0.,1.));
#365=DIRECTION('',(0.,1.,0.));
#366=DIRECTION('',(1.,0.,0.));
#367=DIRECTION('',(0.,1.,0.));
#368=DIRECTION('',(1.,0.,0.));
#369=DIRECTION('',(0.,1.,0.));
#370=DIRECTION('',(1.,0.,0.));
#371=DIRECTION('',(0.,1.,0.));
#372=DIRECTION('',(1.,0.,0.));
#373=DIRECTION('',(0.,-1.,0.));
#374=DIRECTION('',(-1.,0.,0.));
#375=DIRECTION('',(0.,1.,0.));
#376=DIRECTION('',(1.,0.,0.));
#377=DIRECTION('',(0.,1.,0.));
#378=DIRECTION('',(1.,0.,0.));
#379=DIRECTION('',(0.,-1.,0.));
#380=DIRECTION('',(-1.,0.,0.));
#381=DIRECTION('',(-1.,0.,0.));
#382=DIRECTION('',(0.,1.,0.));
#383=CARTESIAN_POINT('',(0.,0.,0.));
#384=CARTESIAN_POINT('',(-5.19481835993691,0.,4.30131585556637));
#385=CARTESIAN_POINT('',(-6.23330510645406,0.,4.30131585556637));
#386=CARTESIAN_POINT('',(-6.23330510645406,0.,5.47011231644128));
#387=CARTESIAN_POINT('',(-6.23330510645406,0.,3.13251939469145));
#388=CARTESIAN_POINT('',(-5.19481835993691,0.,3.13251939469145));
#389=CARTESIAN_POINT('',(-4.15633161341975,0.,3.13251939469145));
#390=CARTESIAN_POINT('',(-4.15633161341975,0.,4.30131585556637));
#391=CARTESIAN_POINT('',(-4.15633161341975,0.,5.47011231644128));
#392=CARTESIAN_POINT('',(-5.19481835993691,0.,5.47011231644128));
#393=CARTESIAN_POINT('',(-5.19481835993691,0.,3.27900565960889));
#394=CARTESIAN_POINT('',(-4.76430072883119,-6.93889390390723E-16,3.27900565960889));
#395=CARTESIAN_POINT('',(-4.33930072883119,0.,3.27900565960889));
#396=CARTESIAN_POINT('',(-4.76430072883119,0.,4.30131585556637));
#397=CARTESIAN_POINT('',(-4.76430072883119,-6.93889390390723E-16,5.27900565960889));
#398=CARTESIAN_POINT('',(-5.19481835993691,0.,5.27900565960889));
#399=CARTESIAN_POINT('',(-4.33930072883119,-6.93889390390723E-16,5.27900565960889));
#400=CARTESIAN_POINT('',(-4.33930072883119,0.,4.30131585556637));
#401=CARTESIAN_POINT('',(-5.18930072883119,0.5,5.27900565960889));
#402=CARTESIAN_POINT('',(-5.18930072883119,0.2,5.27900565960889));
#403=CARTESIAN_POINT('',(-6.03930072883119,0.2,5.27900565960889));
#404=CARTESIAN_POINT('',(-4.76430072883119,0.2,5.27900565960889));
#405=CARTESIAN_POINT('',(-6.03930072883119,0.5,5.27900565960889));
#406=CARTESIAN_POINT('',(-6.03930072883119,0.5,5.27900565960889));
#407=CARTESIAN_POINT('',(-5.18930072883119,0.5,5.27900565960889));
#408=CARTESIAN_POINT('',(-4.33930072883119,0.5,5.27900565960889));
#409=CARTESIAN_POINT('',(-4.33930072883119,0.5,5.27900565960889));
#410=CARTESIAN_POINT('',(-4.76430072883119,-2.34,5.27900565960889));
#411=CARTESIAN_POINT('',(-6.03930072883119,0.5,4.27900565960889));
#412=CARTESIAN_POINT('',(-6.03930072883119,0.2,4.27900565960889));
#413=CARTESIAN_POINT('',(-6.03930072883119,0.2,3.27900565960889));
#414=CARTESIAN_POINT('',(-6.03930072883119,0.5,3.27900565960889));
#415=CARTESIAN_POINT('',(-6.03930072883119,0.5,3.27900565960889));
#416=CARTESIAN_POINT('',(-6.03930072883119,0.5,4.27900565960889));
#417=CARTESIAN_POINT('',(-5.18930072883119,0.5,3.27900565960889));
#418=CARTESIAN_POINT('',(-5.18930072883119,0.2,3.27900565960889));
#419=CARTESIAN_POINT('',(-4.76430072883119,0.2,3.27900565960889));
#420=CARTESIAN_POINT('',(-4.76430072883119,-2.34,3.27900565960889));
#421=CARTESIAN_POINT('',(-4.33930072883119,0.5,3.27900565960889));
#422=CARTESIAN_POINT('',(-4.33930072883119,0.5,3.27900565960889));
#423=CARTESIAN_POINT('',(-5.18930072883119,0.5,3.27900565960889));
#424=CARTESIAN_POINT('',(-6.23330510645406,0.5,4.30131585556637));
#425=CARTESIAN_POINT('',(-6.23330510645406,0.5,5.47011231644128));
#426=CARTESIAN_POINT('',(-6.23330510645406,0.5,5.47011231644128));
#427=CARTESIAN_POINT('',(-6.23330510645406,0.5,4.30131585556637));
#428=CARTESIAN_POINT('',(-6.23330510645406,0.5,3.13251939469145));
#429=CARTESIAN_POINT('',(-6.23330510645406,0.5,3.13251939469145));
#430=CARTESIAN_POINT('',(-5.19481835993691,0.5,5.47011231644128));
#431=CARTESIAN_POINT('',(-4.15633161341975,0.5,5.47011231644128));
#432=CARTESIAN_POINT('',(-4.15633161341975,0.5,5.47011231644128));
#433=CARTESIAN_POINT('',(-5.19481835993691,0.5,5.47011231644128));
#434=CARTESIAN_POINT('',(-4.15633161341975,0.5,4.30131585556637));
#435=CARTESIAN_POINT('',(-4.15633161341975,0.5,3.13251939469145));
#436=CARTESIAN_POINT('',(-4.15633161341975,0.5,3.13251939469145));
#437=CARTESIAN_POINT('',(-4.15633161341975,0.5,4.30131585556637));
#438=CARTESIAN_POINT('',(-5.19481835993691,0.5,3.13251939469145));
#439=CARTESIAN_POINT('',(-5.19481835993691,0.5,3.13251939469145));
#440=CARTESIAN_POINT('',(-4.33930072883119,0.5,4.27900565960889));
#441=CARTESIAN_POINT('',(-4.33930072883119,0.5,4.27900565960889));
#442=CARTESIAN_POINT('',(-5.19481835993691,0.5,4.30131585556637));
#443=CARTESIAN_POINT('',(-5.18930072883119,0.2,4.27900565960889));
#444=CARTESIAN_POINT('',(-4.76430072883119,0.2,4.27900565960889));
#445=CARTESIAN_POINT('',(-5.77581259165868,0.2,3.51997014086083));
#446=CARTESIAN_POINT('',(-5.65952959443771,0.2,3.51997014086083));
#447=CARTESIAN_POINT('',(-5.77581259165868,0.2,5.00976589383524));
#448=CARTESIAN_POINT('',(-5.65129858734986,0.2,5.00976589383524));
#449=CARTESIAN_POINT('',(-5.18930072883119,0.5,4.27900565960889));
#450=CARTESIAN_POINT('',(-5.77581259165868,0.5,3.51997014086083));
#451=CARTESIAN_POINT('',(-5.65952959443771,0.5,3.51997014086083));
#452=CARTESIAN_POINT('',(-5.77581259165868,0.5,3.51997014086083));
#453=CARTESIAN_POINT('',(-5.18930072883119,0.5,4.27900565960889));
#454=CARTESIAN_POINT('',(-5.77581259165868,0.5,5.00976589383524));
#455=CARTESIAN_POINT('',(-5.65129858734986,0.5,5.00976589383524));
#456=CARTESIAN_POINT('',(-5.77581259165868,0.5,5.00976589383524));
#457=CARTESIAN_POINT('',(-4.76430072883119,-2.34,4.27900565960889));
#458=MECHANICAL_DESIGN_GEOMETRIC_PRESENTATION_REPRESENTATION('',(#279),
#459);
#459=(
GEOMETRIC_REPRESENTATION_CONTEXT(3)
GLOBAL_UNCERTAINTY_ASSIGNED_CONTEXT((#460))
GLOBAL_UNIT_ASSIGNED_CONTEXT((#463,#462,#461))
REPRESENTATION_CONTEXT('Part 1','TOP_LEVEL_ASSEMBLY_PART')
);
#460=UNCERTAINTY_MEASURE_WITH_UNIT(LENGTH_MEASURE(1.E-6),#463,
'DISTANCE_ACCURACY_VALUE','Maximum Tolerance applied to model');
#461=(
NAMED_UNIT(*)
SI_UNIT($,.STERADIAN.)
SOLID_ANGLE_UNIT()
);
#462=(
NAMED_UNIT(*)
PLANE_ANGLE_UNIT()
SI_UNIT($,.RADIAN.)
);
#463=(
LENGTH_UNIT()
NAMED_UNIT(*)
SI_UNIT(.CENTI.,.METRE.)
);
#464=PRODUCT_DEFINITION_SHAPE('','',#465);
#465=PRODUCT_DEFINITION('','',#467,#466);
#466=PRODUCT_DEFINITION_CONTEXT('',#473,'design');
#467=PRODUCT_DEFINITION_FORMATION_WITH_SPECIFIED_SOURCE('','',#469,
 .NOT_KNOWN.);
#468=PRODUCT_RELATED_PRODUCT_CATEGORY('','',(#469));
#469=PRODUCT('Part 1','Part 1','Part 1',(#471));
#470=PRODUCT_CATEGORY('','');
#471=PRODUCT_CONTEXT('',#473,'mechanical');
#472=APPLICATION_PROTOCOL_DEFINITION('international standard',
'ap242_managed_model_based_3d_engineering',2020,#473);
#473=APPLICATION_CONTEXT('managed model based 3d engineering');
ENDSEC;
END-ISO-10303-21;
